<svg width="128" height="128" viewBox="0 0 128 128" xmlns="http://www.w3.org/2000/svg" role="img" aria-label="E-Wallet">
  <rect width="128" height="128" rx="28" fill="#2563EB"/>
  <path d="M31 40h63c7.7 0 14 6.3 14 14v34c0 7.7-6.3 14-14 14H31c-7.7 0-14-6.3-14-14V54c0-7.7 6.3-14 14-14Z" fill="#EFF6FF"/>
  <path d="M29 31h55c6.6 0 12 5.4 12 12v5H29c-6.6 0-12 5.4-12 12V43c0-6.6 5.4-12 12-12Z" fill="#93C5FD"/>
  <path d="M76 61h32v25H76c-6.9 0-12.5-5.6-12.5-12.5S69.1 61 76 61Z" fill="#1D4ED8"/>
  <circle cx="78" cy="73.5" r="5.8" fill="#DBEAFE"/>
  <path d="M34 73h20" stroke="#2563EB" stroke-width="7" stroke-linecap="round"/>
</svg>
