<svg fill="#00B14F" role="img" viewBox="0 0 63 24" xmlns="http://www.w3.org/2000/svg"><title>Grab</title><path d="M60.391 9.047a7.598 7.598 0 0 0-5.397-2.264c-1.48 0-2.962 0.55-3.778 1.093-1.69 1.127-3.079 2.347-5.578 5.576v2.321c2.121-2.762 4.128-4.94 5.651-6.137 1.002-0.805 2.422-1.301 3.705-1.3 3.31 0 6.106 2.796 6.105 6.105v1.397c0 1.635-0.641 3.175-1.812 4.33a6.077 6.077 0 0 1-4.293 1.778c-2.721 0-5.114-1.867-5.763-4.415l-1.096 1.324c0.797 2.674 3.679 4.644 6.859 4.644 2.02 0 3.936-0.805 5.397-2.264 1.459-1.459 2.261-3.375 2.261-5.397v-1.397c0-2.02-0.805-3.938-2.261-5.394m-33.229-0.711c1.054 0 1.965 0.226 2.788 0.69 0.387-0.483 0.776-0.875 1.067-1.165-0.87-0.665-2.344-1.077-3.855-1.078-2.155 0-4.112 0.779-5.509 2.189-1.386 1.402-2.155 3.341-2.154 5.469v9.058h1.552V14.439c0-3.595 2.513-6.106 6.111-6.106m14.74 15.161v-9.055c0-2.783-2.181-4.966-4.966-4.966-1.298 0-2.534 0.527-3.486 1.479a4.919 4.919 0 0 0-1.48 3.487v1.396c0 2.692 2.277 4.966 4.966 4.967 0.74 0 1.742-0.182 2.357-0.686v-1.638c-0.602 0.485-1.48 0.774-2.357 0.774a3.38 3.38 0 0 1-3.414-3.417v-1.396a3.375 3.375 0 0 1 3.414-3.411 3.375 3.375 0 0 1 3.416 3.411v9.057zM0.348 13.546v0.501c0 2.689 1.02 5.2 2.874 7.066a9.758 9.758 0 0 0 6.981 2.887c2.129 0 4.019-0.483 5.612-1.431 1.314-0.784 1.895-1.576 1.947-1.648V12.57H9.824v1.55H16.21v6.318l-0.006 0.005c-0.748 0.748-2.523 1.999-6.001 1.999a8.216 8.216 0 0 1-5.917-2.435 8.429 8.429 0 0 1-2.388-5.963v-0.501c0-2.155 0.973-4.299 2.663-5.89a9.237 9.237 0 0 1 6.34-2.51c2.199 0 3.733 0.335 4.966 1.08v-1.74c-1.282-0.545-2.817-0.792-4.966-0.792C5.182 3.691 0.348 8.203 0.348 13.543m26.814-2.513c0.587 0 1.088 0.096 1.482 0.291 0.195-0.483 0.392-0.88 0.681-1.363-0.421-0.301-1.425-0.483-2.163-0.483-2.83 0-4.966 2.136-4.966 4.966v9.058h1.552V14.439c0-2.009 1.402-3.411 3.414-3.411m-11.295-1.823v-1.835c-1.404-0.753-2.936-1.088-4.966-1.088-2.074 0-4.037 0.761-5.535 2.139-1.498 1.381-2.323 3.201-2.323 5.12v0.501c0 4.003 3.211 7.258 7.16 7.258 3.211 0 4.53-1.051 4.864-1.384v-4.657H9.824v1.553h3.79v2.333l-0.013 0.003c-0.485 0.195-1.5 0.6-3.401 0.6-1.506 0-2.913-0.584-3.967-1.651a5.719 5.719 0 0 1-1.64-4.055v-0.501c0-3.094 2.889-5.706 6.308-5.706 2.362 0 3.764 0.382 4.966 1.37m36.616 2.923c0.701-0.701 1.617-1.101 2.511-1.1 1.913 0 3.414 1.498 3.413 3.411v1.396c0 1.916-1.5 3.416-3.413 3.417-0.927 0-1.822-0.509-2.524-1.428a5.584 5.584 0 0 1-1.085-2.907l-1.256 1.534c0.247 1.173 0.857 2.297 1.726 3.089 0.893 0.813 2.009 1.262 3.139 1.262a4.971 4.971 0 0 0 4.966-4.967v-1.396c0-1.295-0.524-2.536-1.48-3.487a4.922 4.922 0 0 0-3.486-1.479c-0.82 0-2.124 0.296-3.679 1.692l-0.005 0.006c-0.415 0.415-1.391 1.391-1.986 2.087-0.997 1.09-2.448 2.736-3.686 4.382v2.422c1.373-1.765 2.162-2.752 3.452-4.242 1.155-1.347 2.586-2.985 3.393-3.692m-23.205 3.707c0 2.022 0.805 3.938 2.264 5.4a7.606 7.606 0 0 0 5.394 2.259c0.857 0 1.737-0.182 2.357-0.488v-1.55c-0.727 0.304-1.604 0.488-2.357 0.488-3.307 0-6.106-2.796-6.106-6.109v-1.396c0-3.31 2.798-6.106 6.106-6.106a6.075 6.075 0 0 1 6.108 6.108v9.055h1.553v-9.356a7.733 7.733 0 0 0-2.376-5.207 7.58 7.58 0 0 0-5.285-2.155c-2.02 0-3.936 0.805-5.394 2.266a7.596 7.596 0 0 0-2.264 5.395z m17.959-6.004c0.475-0.571 0.966-1.15 1.547-1.638V0h-1.547z m2.692-2.274V0h1.55V6.495a9.348 9.348 0 0 0-1.55 1.065"/></svg>