<svg fill="#F4B942" role="img" viewBox="0 0 33 24" xmlns="http://www.w3.org/2000/svg"><title>PUBG</title><path d="M2.091 23.845c-0.146-0.337-0.18-0.545-0.179-1.09 0-0.512 0.02-0.651 0.284-1.929a51.778 51.778 0 0 0 0.272-1.383c-0.136-0.076-0.655-0.512-0.953-0.8-0.668-0.643-1.089-1.278-1.284-1.928-0.08-0.266-0.091-0.384-0.076-0.807 0.018-0.465 0.027-0.515 0.173-0.816a2.725 2.725 0 0 1 0.35-0.532c0.191-0.204 0.198-0.219 0.256-0.633 0.033-0.233 0.098-0.672 0.143-0.974 0.074-0.491 0.076-0.578 0.025-0.807a3.87 3.87 0 0 1 0.111-2.083c0.488-1.349 1.894-2.29 4.088-2.735 1.671-0.339 3.836-0.361 5.96-0.061 2.094 0.297 4.556 0.974 6.828 1.88 0.292 0.117 0.534 0.207 0.539 0.202 0.019-0.019-1.744-0.91-2.193-1.109A23.164 23.164 0 0 0 11.431 6.649C10.33 6.441 9.987 6.414 8.525 6.414c-1.269 0-1.455 0.01-1.989 0.099a9.538 9.538 0 0 0-1.14 0.245c-0.136 0.041-0.076-0.063 0.112-0.192 0.703-0.485 1.853-0.94 3.039-1.207 1.162-0.26 1.16-0.241 0.031-0.225-0.555 0.008-1.008 0.003-1.008-0.012s0.034-0.056 0.075-0.093a13.626 13.626 0 0 0 0.466-0.512c0.672-0.763 1.707-1.662 2.62-2.271 1.741-1.164 3.479-1.833 5.619-2.164 0.695-0.109 2.808-0.109 3.543 0 2.292 0.334 4.039 0.963 5.641 2.03 0.755 0.504 1.177 0.85 1.825 1.5 1.299 1.305 2.198 2.752 2.985 4.806 0.422 1.101 0.819 2.398 1.03 3.371l0.098 0.451 0.224 0.157c0.123 0.086 0.249 0.207 0.28 0.27s0.226 0.61 0.431 1.218c0.206 0.606 0.39 1.109 0.409 1.117s0.035 0.151 0.035 0.319c0 0.29-0.005 0.307-0.117 0.36-0.144 0.068-1.413 0.347-1.581 0.347-0.173 0-0.313-0.15-0.438-0.467l-0.242-0.594c-0.074-0.174-0.234-0.567-0.358-0.87-0.411-1.007-0.402-0.988-0.537-1.044-0.109-0.045-0.174-0.035-0.535 0.088-0.226 0.078-0.477 0.177-0.555 0.225a0.749 0.749 0 0 0-0.301 0.545c-0.001 0.124 0.313 1.038 0.394 1.144 0.091 0.121 2.168 1.512 2.3 1.541 0.082 0.018 0.345-0.019 0.719-0.101l0.597-0.128c0.004 0 0.022 0.293 0.038 0.652 0.029 0.613 0.025 0.662-0.058 0.827-0.142 0.278-0.004 0.218-2.276 0.985-1.79 0.605-2.131 0.677-3.206 0.677a6.132 6.132 0 0 1-3.254-0.877c-0.654-0.386-1.433-1.045-1.668-1.413-0.181-0.285-0.218-0.055 0.464-2.991 0.136-0.582 0.264-1.064 0.287-1.073 0.023-0.007 0.123 0.136 0.222 0.322s0.223 0.362 0.275 0.395 0.391 0.191 0.753 0.353c0.557 0.248 0.702 0.296 0.947 0.311a1.117 1.117 0 0 0 1.076-0.559c0.113-0.178 0.132-0.273 0.29-1.458l0.216-1.605c0.134-0.988 0.123-1.304-0.063-1.701-0.208-0.446-0.447-0.646-1.201-1.009-1.251-0.605-1.175-0.593-1.742-0.278-0.215 0.12-0.395 0.219-0.4 0.223a10.901 10.901 0 0 0 0.427-0.008l0.433-0.014 0.709 0.327c0.556 0.259 0.756 0.375 0.924 0.535 0.41 0.395 0.535 0.892 0.422 1.691-0.071 0.504-0.116 0.624-0.313 0.838-0.252 0.275-0.455 0.367-0.813 0.367-0.283 0-0.331-0.014-0.997-0.327-0.694-0.327-0.703-0.33-1.076-0.339l-0.376-0.009-0.054 0.212-0.226 0.933c-0.221 0.917-0.65 2.692-1.001 4.14-0.15 0.619-0.352 1.448-0.446 1.846-0.217 0.91-0.292 1.172-0.418 1.465-0.298 0.685-0.939 1.349-1.635 1.696-0.788 0.391-1.466 0.466-2.491 0.28a61.316 61.316 0 0 0-6.104-0.838c-0.826-0.072-3.618-0.072-4.158 0-1.125 0.151-1.617 0.259-2.091 0.459a2.63 2.63 0 0 0-1.154 0.916c-0.237 0.35-0.345 0.967-0.26 1.488 0.04 0.241-0.011 0.262-0.108 0.04z m0.432-4.624c0-0.038 0.082-0.497 0.225-1.266 0.136-0.733 0.289-1.019 0.784-1.48 0.823-0.763 2.395-1.259 4.539-1.431 0.759-0.061 3.34-0.019 4.186 0.068 1.754 0.178 2.412 0.266 3.924 0.518 1.234 0.206 1.207 0.204 0.954 0.1a79.029 79.029 0 0 0-2.799-1.014c-1.665-0.561-2.645-0.788-4.369-1.008-0.852-0.109-3.401-0.11-4.2-0.002-1.54 0.21-2.657 0.521-3.499 0.977-0.713 0.384-1.22 0.876-1.429 1.39-0.123 0.3-0.102 0.957 0.041 1.303 0.169 0.407 0.452 0.798 0.885 1.226 0.594 0.583 0.758 0.717 0.758 0.619m-0.76-5.573c0.204-0.146 0.884-0.45 1.312-0.586 0.715-0.23 1.304-0.349 2.459-0.5 0.677-0.089 3.566-0.127 4.475-0.059l0.975 0.072c0.39 0.03 0.431-0.014 0.535-0.569l0.25-1.327c0.259-1.363 0.338-1.796 0.34-1.874 0-0.143-0.146-0.259-0.383-0.296-1.079-0.176-3.1-0.27-4.436-0.208-3.002 0.136-4.882 0.856-5.589 2.134a2.18 2.18 0 0 0-0.298 0.902q-0.025 0.256 0.013 0.143c0.195-0.594 0.709-1.199 1.262-1.491 0.323-0.17 0.354-0.18 0.354-0.12 0 0.02-0.086 0.079-0.19 0.131q-0.372 0.178-0.699 0.808c-0.208 0.402-0.263 0.638-0.405 1.759a83.117 83.117 0 0 1-0.131 1.008c-0.029 0.184-0.011 0.191 0.156 0.073m13.061-0.251c0.09-0.071 0.106-0.116 0.106-0.322 0-0.217-0.014-0.251-0.139-0.362-0.164-0.147-0.256-0.155-0.406-0.038-0.219 0.174-0.166 0.6 0.094 0.741 0.15 0.082 0.218 0.078 0.345-0.019m10.014-2.603c0.304-0.204 0.435-0.574 0.342-0.97-0.161-0.702-0.902-0.995-1.317-0.523-0.386 0.439-0.226 1.24 0.3 1.499 0.243 0.12 0.492 0.119 0.675-0.006m-0.438-0.436c-0.255-0.139-0.334-0.59-0.14-0.798 0.147-0.159 0.388-0.157 0.545 0.008 0.226 0.234 0.234 0.572 0.022 0.751-0.143 0.12-0.259 0.131-0.427 0.039m-8.922-0.199c0.134-0.189 0.049-0.608-0.143-0.71-0.123-0.067-0.278-0.053-0.35 0.03-0.191 0.218-0.193 0.425-0.004 0.649 0.136 0.164 0.395 0.18 0.499 0.031z"/></svg>