<svg fill="#EE4D2D" role="img" viewBox="0 0 22 24" xmlns="http://www.w3.org/2000/svg"><title>Shopee</title><path d="M14.942 17.963c0.229-1.879-0.981-3.077-4.176-4.097-1.548-0.528-2.277-1.22-2.26-2.171 0.065-1.056 1.048-1.825 2.352-1.851a5.29 5.29 0 0 1 2.884 0.89c0.116 0.072 0.197 0.06 0.263-0.039 0.09-0.145 0.315-0.494 0.39-0.62 0.051-0.081 0.061-0.187-0.068-0.281-0.185-0.137-0.704-0.415-0.983-0.531a6.47 6.47 0 0 0-2.512-0.514c-1.909 0.008-3.413 1.215-3.538 2.826-0.082 1.163 0.494 2.108 1.73 2.827 0.262 0.152 1.68 0.716 2.243 0.892 1.774 0.552 2.695 1.542 2.478 2.697-0.197 1.047-1.299 1.724-2.818 1.744-1.204-0.046-2.288-0.537-3.127-1.19l-0.141-0.11c-0.104-0.08-0.218-0.075-0.287 0.03-0.05 0.077-0.376 0.547-0.458 0.67-0.077 0.108-0.035 0.168 0.045 0.234 0.35 0.293 0.817 0.613 1.134 0.775a6.71 6.71 0 0 0 2.828 0.727 4.905 4.905 0 0 0 2.076-0.354c1.095-0.465 1.803-1.394 1.945-2.554zM10.999 1.401c-2.068 0-3.754 1.95-3.832 4.39h7.665c-0.08-2.44-1.765-4.39-3.833-4.39z m7.852 22.598l-0.08 0.001-15.784-0.002c-1.074-0.04-1.863-0.91-1.971-1.991l-0.01-0.195L0.299 6.286a0.459 0.459 0 0 1 0.45-0.494h4.975C5.846 2.568 8.162 0 11 0c2.839 0 5.154 2.569 5.276 5.79h4.968a0.459 0.459 0 0 1 0.458 0.483l-0.773 15.588-0.007 0.131c-0.094 1.094-0.979 1.977-2.071 2.006z"/></svg>